<svg xmlns="http://www.w3.org/2000/svg" xmlns:xlink="http://www.w3.org/1999/xlink" fill="none" version="1.1" width="14" height="14" viewBox="0 0 14 14"><defs><clipPath id="master_svg0_25_12726"><rect x="0" y="0" width="14" height="14" rx="0"/></clipPath></defs><g clip-path="url(#master_svg0_25_12726)"><g><path d="M4.624773263931274,1.8735651969909668C4.624773263931274,1.8735651969909668,4.499773263931274,1.8735651969909668,4.499773263931274,1.8735651969909668C4.568523263931274,1.8735651969909668,4.624773263931274,1.8173151969909669,4.624773263931274,1.7485651969909668C4.624773263931274,1.7485651969909668,4.624773263931274,1.8735651969909668,4.624773263931274,1.8735651969909668C4.624773263931274,1.8735651969909668,9.374763263931275,1.8735651969909668,9.374763263931275,1.8735651969909668C9.374763263931275,1.8735651969909668,9.374763263931275,1.7485651969909668,9.374763263931275,1.7485651969909668C9.374763263931275,1.8173151969909669,9.431043263931274,1.8735651969909668,9.499753263931275,1.8735651969909668C9.499753263931275,1.8735651969909668,9.374763263931275,1.8735651969909668,9.374763263931275,1.8735651969909668C9.374763263931275,1.8735651969909668,9.374763263931275,2.998565196990967,9.374763263931275,2.998565196990967C9.374763263931275,2.998565196990967,10.499783263931274,2.998565196990967,10.499783263931274,2.998565196990967C10.499783263931274,2.998565196990967,10.499783263931274,1.7485651969909668,10.499783263931274,1.7485651969909668C10.499783263931274,1.1970041969909668,10.051313263931274,0.7485651969909668,9.499753263931275,0.7485651969909668C9.499753263931275,0.7485651969909668,4.499773263931274,0.7485651969909668,4.499773263931274,0.7485651969909668C3.9482132639312746,0.7485651969909668,3.4997732639312744,1.1970041969909668,3.4997732639312744,1.7485651969909668C3.4997732639312744,1.7485651969909668,3.4997732639312744,2.998565196990967,3.4997732639312744,2.998565196990967C3.4997732639312744,2.998565196990967,4.624773263931274,2.998565196990967,4.624773263931274,2.998565196990967C4.624773263931274,2.998565196990967,4.624773263931274,1.8735651969909668,4.624773263931274,1.8735651969909668C4.624773263931274,1.8735651969909668,4.624773263931274,1.8735651969909668,4.624773263931274,1.8735651969909668ZM12.499773263931274,2.998565196990967C12.499773263931274,2.998565196990967,1.4997712639312744,2.998565196990967,1.4997712639312744,2.998565196990967C1.2232112639312744,2.998565196990967,0.9997732639312744,3.222005196990967,0.9997732639312744,3.498565196990967C0.9997732639312744,3.498565196990967,0.9997732639312744,3.998565196990967,0.9997732639312744,3.998565196990967C0.9997732639312744,4.067315196990966,1.0560232639312743,4.123565196990967,1.1247732639312744,4.123565196990967C1.1247732639312744,4.123565196990967,2.0685232639312745,4.123565196990967,2.0685232639312745,4.123565196990967C2.0685232639312745,4.123565196990967,2.4544632639312747,12.295465196990968,2.4544632639312747,12.295465196990968C2.479463263931274,12.828265196990968,2.920083263931274,13.248565196990967,3.4529032639312742,13.248565196990967C3.4529032639312742,13.248565196990967,10.546643263931275,13.248565196990967,10.546643263931275,13.248565196990967C11.080973263931275,13.248565196990967,11.520073263931275,12.829865196990967,11.545073263931274,12.295465196990968C11.545073263931274,12.295465196990968,11.930973263931275,4.123565196990967,11.930973263931275,4.123565196990967C11.930973263931275,4.123565196990967,12.874773263931274,4.123565196990967,12.874773263931274,4.123565196990967C12.943473263931274,4.123565196990967,12.999773263931274,4.067315196990966,12.999773263931274,3.998565196990967C12.999773263931274,3.998565196990967,12.999773263931274,3.498565196990967,12.999773263931274,3.498565196990967C12.999773263931274,3.222005196990967,12.776373263931275,2.998565196990967,12.499773263931274,2.998565196990967C12.499773263931274,2.998565196990967,12.499773263931274,2.998565196990967,12.499773263931274,2.998565196990967ZM10.426323263931275,12.123565196990967C10.426323263931275,12.123565196990967,3.5732132639312746,12.123565196990967,3.5732132639312746,12.123565196990967C3.5732132639312746,12.123565196990967,3.1950832639312745,4.123565196990967,3.1950832639312745,4.123565196990967C3.1950832639312745,4.123565196990967,10.804473263931275,4.123565196990967,10.804473263931275,4.123565196990967C10.804473263931275,4.123565196990967,10.426323263931275,12.123565196990967,10.426323263931275,12.123565196990967C10.426323263931275,12.123565196990967,10.426323263931275,12.123565196990967,10.426323263931275,12.123565196990967Z" fill="#000000" fill-opacity="0.44999998807907104"/></g></g></svg>