<svg xmlns="http://www.w3.org/2000/svg" xmlns:xlink="http://www.w3.org/1999/xlink" fill="none" version="1.1" width="16" height="16" viewBox="0 0 16 16"><defs><clipPath id="master_svg0_77_2450"><rect x="0" y="0" width="16" height="16" rx="0"/></clipPath></defs><g clip-path="url(#master_svg0_77_2450)"><g><path d="M12.754353515625,2.5789964619140626C13.535353515625,3.3600334619140626,13.535353515625,4.626293461914063,12.754353515625,5.407333461914062L4.838353515625,13.323323461914063C4.775803515625,13.385723461914063,4.691033515625,13.420723461914063,4.602683515624999,13.420623461914062L2.579020515625,13.420623461914062C2.210830515625,13.420623461914062,1.912353992462,13.122223461914063,1.912353992462,12.754023461914063L1.912353992462,10.730663461914062C1.912196040625,10.642193461914063,1.947211415625,10.557293461914062,2.009687415625,10.494663461914062L9.926683515625,2.5789964619140626C10.707683515625,1.7982324619140626,11.973653515625,1.7982324619140626,12.754653515625,2.5789964619140626L12.754353515625,2.5789964619140626ZM12.047653515625,3.2856634619140626C11.673183515625,2.9112324619140626,11.071703515625,2.8936924619140623,10.676023515625,3.2456634619140625L10.633023515625,3.2856634619140626L2.9513535156249997,10.967663461914062C2.9263535156250002,10.992693461914062,2.912326515625,11.026623461914063,2.912353515625,11.061993461914062L2.912353515625,12.288023461914063C2.912353515625,12.361623461914062,2.9720235156249997,12.421323461914062,3.045683515625,12.421323461914062L4.271023515625,12.421323461914062C4.306443515625,12.421223461914062,4.340383515625,12.407123461914063,4.365353515624999,12.382023461914063L12.047353515625,4.700663461914063C12.421853515625,4.326253461914062,12.439553515625,3.7247734619140624,12.087653515625,3.328993461914062L12.047653515625,3.2863334619140625L12.047653515625,3.2856634619140626Z" fill="#333333" fill-opacity="1"/></g><g><path d="M9.218963890625,3.2859954833984375L12.047292890625,6.114325483398437L11.340292890625,6.821325483398438L8.511962890625,3.9929954833984374L9.218963890625,3.2859954833984375Z" fill="#333333" fill-opacity="1"/></g><g><path d="M7.7999589765625,12.433334350585938L13.1999559765625,12.433334350585938Q13.3332959765625,12.433334350585938,13.3332959765625,12.566667350585938L13.3332959765625,13.300001350585937Q13.3332959765625,13.433334350585938,13.1999559765625,13.433334350585938L7.7999589765625,13.433334350585938Q7.6666259765625,13.433334350585938,7.6666259765625,13.300001350585937L7.6666259765625,12.566667350585938Q7.6666259765625,12.433334350585938,7.7999589765625,12.433334350585938Z" fill="#333333" fill-opacity="1"/></g><g><path d="M10.4667070234375,10.433334350585938L13.2000440234375,10.433334350585938Q13.3333740234375,10.433334350585938,13.3333740234375,10.566667350585938L13.3333740234375,11.300001350585937Q13.3333740234375,11.433334350585938,13.2000440234375,11.433334350585938L10.4667070234375,11.433334350585938Q10.3333740234375,11.433334350585938,10.3333740234375,11.300001350585937L10.3333740234375,10.566667350585938Q10.3333740234375,10.433334350585938,10.4667070234375,10.433334350585938Z" fill="#333333" fill-opacity="1"/></g></g></svg>