<svg xmlns="http://www.w3.org/2000/svg" xmlns:xlink="http://www.w3.org/1999/xlink" fill="none" version="1.1" width="15.764389991760254" height="15.80190658569336" viewBox="0 0 15.764389991760254 15.80190658569336"><g><path d="M9.75666,3.97002C9.51967,3.90709,9.08208,3.87553,8.44375,3.87553L5.72364,3.87553L5.72364,7.68556L8.47283,7.68558C9.38189,7.68558,10.0275,7.51598,10.4096,7.17659C10.7915,6.83734,10.9826,6.35984,10.9826,5.7442C10.9826,5.29828,10.8702,4.91653,10.6453,4.59905C10.4204,4.28156,10.1242,4.07194,9.75674,3.97009L9.7567,3.97003L9.75666,3.97002ZM14.0128,0L1.75155,0C0.788203,0,0,0.790094,0,1.75572L0,14.0462C0,15.0118,0.788219,15.8019,1.75155,15.8019L14.0128,15.8019C14.9762,15.8019,15.7644,15.0118,15.7644,14.0462L15.7644,1.75572C15.7644,0.790109,14.9761,7.45058e-9,14.0128,0ZM11.5701,8.00183C10.9945,8.62963,9.95486,8.94344,8.45092,8.94344L5.72348,8.94344L5.72348,13.277L4.31625,13.277L4.31625,2.61761L8.32753,2.61761C9.03355,2.61761,9.57264,2.65162,9.94509,2.71942C10.4673,2.80669,10.905,2.97275,11.258,3.2175C11.611,3.4623,11.8951,3.80534,12.1104,4.24633C12.3255,4.68748,12.4331,5.17223,12.4331,5.70058C12.4331,6.60705,12.1453,7.37414,11.5699,8.00189L11.5701,8.00183Z" fill="#3F78FD" fill-opacity="1"/></g></svg>